<?xml version="1.0" encoding="UTF-8"?>
<svg xmlns="http://www.w3.org/2000/svg" viewBox="0 0 792 336" width="792" height="336">
  <title>Paul Velasquez signature</title>
  <desc>Vectorized ink signature. Cleaned of paper background, water droplets, and stray scribble at top.</desc>
  <path d="M 20,185 L 23,192 L 28,197 L 36,199 L 55,199 L 63,197 L 79,196 L 83,194 L 89,193 L 97,195 L 91,207 L 90,212 L 86,219 L 85,226 L 82,230 L 80,235 L 79,241 L 73,256 L 69,271 L 67,274 L 58,302 L 58,312 L 60,314 L 67,315 L 75,307 L 78,302 L 83,297 L 100,273 L 105,264 L 112,255 L 113,252 L 116,249 L 129,227 L 130,223 L 135,215 L 138,206 L 140,204 L 146,186 L 148,184 L 152,184 L 154,182 L 160,181 L 172,181 L 176,178 L 183,179 L 189,178 L 193,176 L 198,178 L 191,185 L 187,185 L 182,190 L 181,193 L 181,198 L 183,200 L 190,200 L 192,199 L 194,196 L 217,173 L 229,172 L 233,171 L 238,168 L 249,169 L 251,171 L 251,173 L 253,176 L 259,180 L 264,180 L 269,178 L 279,169 L 290,170 L 294,167 L 300,167 L 305,170 L 325,169 L 337,170 L 347,172 L 363,172 L 373,174 L 401,176 L 421,176 L 427,178 L 430,177 L 440,179 L 460,179 L 487,181 L 498,183 L 518,183 L 529,185 L 586,188 L 616,188 L 625,187 L 631,185 L 634,182 L 634,178 L 630,168 L 606,145 L 603,140 L 604,135 L 640,134 L 644,135 L 681,133 L 718,133 L 726,134 L 766,132 L 769,131 L 771,129 L 771,124 L 770,122 L 767,120 L 761,120 L 756,121 L 752,123 L 705,125 L 685,124 L 678,125 L 675,122 L 650,122 L 628,118 L 635,116 L 637,114 L 649,110 L 659,103 L 663,98 L 664,89 L 661,82 L 652,73 L 648,71 L 647,67 L 671,64 L 678,65 L 681,63 L 703,62 L 710,60 L 717,60 L 727,58 L 737,54 L 738,47 L 737,45 L 731,41 L 719,38 L 704,36 L 695,36 L 686,34 L 647,31 L 639,32 L 617,30 L 608,31 L 607,30 L 605,30 L 604,31 L 583,31 L 582,30 L 578,31 L 551,30 L 548,32 L 537,31 L 533,28 L 533,26 L 537,22 L 546,17 L 555,9 L 557,5 L 557,0 L 546,0 L 546,2 L 542,6 L 524,18 L 522,22 L 521,31 L 506,32 L 506,30 L 523,13 L 539,2 L 541,2 L 541,0 L 521,0 L 520,3 L 517,4 L 499,23 L 493,32 L 485,32 L 484,33 L 476,35 L 474,33 L 472,33 L 471,34 L 467,33 L 460,35 L 455,34 L 452,36 L 446,35 L 445,36 L 441,35 L 428,36 L 424,38 L 411,38 L 408,40 L 403,39 L 401,41 L 394,40 L 382,41 L 379,43 L 373,42 L 372,44 L 365,43 L 364,44 L 359,44 L 358,46 L 355,47 L 351,45 L 348,47 L 343,46 L 341,48 L 336,47 L 334,49 L 327,48 L 326,49 L 321,49 L 315,54 L 314,50 L 311,50 L 308,53 L 304,53 L 302,54 L 301,52 L 298,54 L 293,53 L 293,51 L 295,49 L 296,43 L 301,31 L 303,21 L 303,9 L 300,3 L 300,0 L 264,0 L 263,3 L 245,13 L 235,20 L 234,22 L 231,23 L 222,31 L 218,33 L 191,57 L 183,65 L 181,69 L 172,76 L 166,77 L 163,79 L 157,78 L 162,57 L 167,44 L 171,36 L 176,30 L 187,13 L 190,5 L 192,3 L 192,0 L 177,0 L 177,3 L 162,35 L 153,47 L 134,69 L 108,93 L 99,95 L 75,105 L 65,112 L 63,115 L 62,121 L 66,127 L 47,143 L 40,148 L 36,149 L 34,151 L 34,156 L 23,172 L 20,181 Z M 135,188 L 134,193 L 128,207 L 111,239 L 104,248 L 100,256 L 93,266 L 89,270 L 85,278 L 76,288 L 75,291 L 72,291 L 72,289 L 75,282 L 75,279 L 85,248 L 93,226 L 96,221 L 97,216 L 107,193 L 111,190 L 130,187 Z M 225,165 L 225,163 L 229,159 L 233,159 L 240,163 L 232,163 Z M 281,149 L 281,151 L 277,156 L 275,157 L 269,155 L 276,149 L 278,148 Z M 235,152 L 236,149 L 238,148 L 243,148 L 244,149 L 256,148 L 258,150 L 258,152 L 255,155 L 243,154 Z M 149,176 L 151,169 L 152,155 L 154,148 L 158,148 L 159,149 L 179,151 L 191,154 L 210,156 L 216,159 L 214,162 L 207,168 L 199,168 L 193,169 L 189,171 L 180,171 L 175,173 L 162,174 L 152,177 Z M 315,147 L 317,150 L 316,152 L 312,151 Z M 300,149 L 295,151 L 296,148 Z M 200,147 L 201,145 L 206,145 L 223,149 L 221,151 L 217,151 Z M 142,146 L 144,148 L 142,166 L 139,177 L 137,179 L 131,179 L 121,182 L 113,182 L 113,180 L 116,173 L 122,164 L 123,160 L 131,146 L 133,144 L 136,144 Z M 112,145 L 107,150 L 104,156 L 105,160 L 107,162 L 112,164 L 110,166 L 102,183 L 100,185 L 90,187 L 83,187 L 77,189 L 61,191 L 34,191 L 28,187 L 28,182 L 29,179 L 39,163 L 45,156 L 51,152 L 57,146 L 61,144 L 67,149 L 72,149 L 84,146 L 99,145 L 105,143 Z M 622,176 L 612,178 L 576,177 L 555,178 L 546,176 L 535,175 L 531,176 L 505,175 L 496,173 L 492,174 L 482,174 L 479,172 L 466,171 L 461,172 L 453,172 L 450,170 L 442,171 L 434,169 L 419,170 L 415,168 L 411,169 L 410,167 L 404,168 L 387,168 L 385,166 L 374,164 L 387,152 L 396,152 L 398,154 L 406,154 L 410,151 L 413,150 L 445,148 L 451,146 L 461,147 L 475,145 L 500,145 L 509,143 L 543,143 L 550,141 L 564,142 L 594,142 L 602,154 Z M 155,140 L 156,137 L 162,136 L 174,136 L 184,141 L 195,144 L 199,147 L 193,147 L 187,145 L 173,143 L 165,143 Z M 68,137 L 77,130 L 81,131 L 87,136 L 85,137 L 71,139 Z M 238,131 L 234,135 L 232,139 L 220,140 L 199,137 L 194,133 L 203,133 L 211,131 L 234,129 Z M 431,133 L 432,129 L 436,125 L 492,125 L 543,129 L 525,129 L 505,131 L 501,130 L 456,132 L 442,134 Z M 421,126 L 419,130 L 413,132 L 415,130 L 416,127 Z M 394,126 L 394,128 L 391,132 L 386,136 L 378,136 L 376,134 L 376,130 L 374,128 L 369,127 L 365,131 L 362,136 L 356,136 L 355,133 L 353,132 L 348,132 L 343,138 L 340,138 L 335,133 L 330,133 L 325,139 L 312,139 L 309,137 L 304,140 L 280,141 L 275,138 L 273,138 L 268,141 L 244,140 L 244,138 L 246,136 L 246,134 L 253,128 L 306,125 L 371,124 L 372,125 L 390,124 Z M 158,123 L 157,126 L 149,127 L 144,125 L 148,120 L 153,116 Z M 413,95 L 410,100 L 410,103 L 407,106 L 403,115 L 400,117 L 394,115 L 371,116 L 360,115 L 356,117 L 353,117 L 350,115 L 317,117 L 310,116 L 295,118 L 286,117 L 270,119 L 260,116 L 267,114 L 279,113 L 289,110 L 297,109 L 301,110 L 303,108 L 323,106 L 326,104 L 349,102 L 351,99 L 354,99 L 354,101 L 371,99 L 374,97 L 378,98 L 387,97 L 388,95 L 393,96 L 396,94 L 399,95 L 409,93 Z M 148,93 L 149,104 L 140,115 L 133,127 L 129,130 L 120,132 L 111,132 L 87,126 L 85,123 L 112,101 L 144,92 Z M 451,89 L 451,91 L 431,115 L 424,113 L 427,108 L 427,106 L 432,97 L 432,95 L 434,91 L 448,88 Z M 655,90 L 648,98 L 636,104 L 621,109 L 603,119 L 583,119 L 554,117 L 512,116 L 509,117 L 489,117 L 450,115 L 449,116 L 445,115 L 445,113 L 449,109 L 451,105 L 460,94 L 461,91 L 465,87 L 500,82 L 504,80 L 519,81 L 524,79 L 526,79 L 527,80 L 534,79 L 538,77 L 555,77 L 568,75 L 574,73 L 583,74 L 608,70 L 613,71 L 618,69 L 627,70 L 642,77 L 652,84 Z M 276,66 L 276,68 L 267,84 L 267,86 L 264,89 L 262,94 L 258,101 L 255,104 L 253,109 L 249,111 L 243,111 L 235,114 L 232,113 L 229,115 L 222,117 L 213,116 L 204,118 L 201,120 L 197,119 L 188,122 L 181,121 L 176,123 L 168,123 L 163,118 L 159,111 L 159,106 L 167,96 L 180,83 L 182,82 L 188,82 L 208,77 L 229,73 L 240,72 L 250,68 L 257,69 L 263,68 L 267,65 L 272,66 L 274,64 Z M 151,65 L 149,73 L 149,79 L 148,81 L 139,85 L 131,85 L 131,83 L 136,79 L 147,66 Z M 440,47 L 438,49 L 437,53 L 430,62 L 426,71 L 421,78 L 419,84 L 417,86 L 411,88 L 403,87 L 397,88 L 394,90 L 389,89 L 388,91 L 382,90 L 371,94 L 367,92 L 348,95 L 347,97 L 337,96 L 332,99 L 321,98 L 319,100 L 305,101 L 304,103 L 296,102 L 281,105 L 279,107 L 272,106 L 270,108 L 264,108 L 271,98 L 273,92 L 284,73 L 287,65 L 289,63 L 294,63 L 300,61 L 313,59 L 320,59 L 340,55 L 358,54 L 365,52 L 392,50 L 400,48 L 421,47 L 426,44 L 430,44 L 430,46 Z M 483,44 L 481,49 L 471,61 L 469,66 L 465,70 L 465,72 L 463,75 L 457,81 L 452,83 L 438,81 L 442,73 L 443,68 L 447,61 L 451,49 L 454,44 L 456,43 L 469,43 L 470,42 Z M 473,77 L 473,75 L 478,69 L 479,66 L 496,42 L 504,40 L 535,40 L 541,43 L 548,44 L 554,47 L 569,50 L 576,53 L 583,54 L 595,59 L 603,61 L 603,64 L 599,65 L 589,65 L 585,67 L 580,66 L 577,68 L 572,67 L 563,68 L 560,70 L 556,69 L 546,72 L 545,70 L 526,72 L 524,74 L 521,75 L 520,73 L 517,73 L 509,75 L 500,75 L 491,78 L 484,77 L 483,79 L 479,78 L 476,80 Z M 568,41 L 569,39 L 609,39 L 670,42 L 713,47 L 715,48 L 715,51 L 709,51 L 697,54 L 689,54 L 684,56 L 676,57 L 670,56 L 665,58 L 652,60 L 627,61 L 613,55 L 601,52 L 595,49 L 589,48 L 583,45 L 573,43 Z M 294,9 L 294,19 L 292,28 L 286,46 L 282,54 L 280,56 L 278,56 L 276,58 L 265,58 L 260,59 L 259,61 L 253,60 L 239,62 L 235,64 L 222,65 L 218,68 L 192,70 L 205,57 L 222,42 L 231,36 L 239,29 L 257,17 L 272,9 L 284,5 L 291,5 Z" fill="#0F172A" fill-rule="evenodd" stroke="none"/>
</svg>
