<?xml version="1.0" encoding="UTF-8"?>
<svg xmlns="http://www.w3.org/2000/svg" viewBox="0 0 519 743" width="519" height="743" fill="#A855F7" fill-rule="evenodd">
  <title>Qlick Q logo</title>
  <desc>Vectorized Q icon with antenna. Cleaned of white background.</desc>
  <path d="M161 193L149 197L135 203L119 212L102 224L95 230L77 248L62 267L52 282L45 294L34 316L29 328L24 342L16 371L12 391L8 425L8 471L10 492L14 517L23 551L35 582L47 606L56 621L69 639L78 650L99 671L114 683L131 694L149 703L166 709L192 714L221 714L239 711L259 705L279 695L282 696L292 716L296 722L305 730L311 733L318 735L333 735L339 733L348 728L356 719L360 711L361 707L361 693L360 689L355 678L340 649L338 647L335 640L346 628L357 612L373 582L381 562L387 543L393 518L396 498L398 475L398 435L397 420L392 385L388 367L382 346L372 319L358 291L344 269L329 250L308 229L301 223L287 213L265 201L255 197L238 192L222 189L211 188L205 189L205 201L207 220L207 269L205 305L202 307L200 305L199 299L196 257L196 222L198 200L197 188L180 189Z M195 360L207 360L218 361L237 365L248 369L261 375L280 388L298 406L312 426L320 442L325 456L328 468L331 486L331 517L329 530L325 547L320 561L309 582L306 584L304 582L289 552L280 543L275 540L265 537L255 537L250 538L241 542L232 550L225 564L224 570L225 583L230 596L245 625L250 632L249 635L238 639L226 642L212 644L199 644L190 643L180 641L167 637L147 627L137 620L123 608L107 590L100 580L93 568L86 552L81 537L78 524L76 509L76 487L78 471L81 458L87 440L95 424L105 409L109 404L125 388L142 376L154 370L171 364L185 361Z M85 344L103 335L115 330L136 323L152 319L163 317L182 315L220 315L243 318L272 325L292 332L314 342L318 347L315 347L308 344L288 339L283 339L278 337L245 332L220 330L177 330L152 332L121 337L101 342L90 346Z M185 172L185 176L188 180L196 182L207 181L212 182L219 181L224 177L224 172L223 170L217 167L192 167L189 168Z M507 12L504 8L498 8L496 9L494 12L494 18L496 25L498 44L498 73L497 82L495 90L489 102L480 111L470 116L457 119L435 119L417 116L405 113L385 106L360 95L329 79L313 72L293 65L270 60L252 59L241 60L227 64L215 71L207 80L200 93L197 105L195 123L195 137L197 157L198 159L202 162L206 162L208 161L210 158L209 114L211 103L216 91L218 88L226 80L234 76L246 73L265 73L282 76L293 79L325 92L371 115L386 121L413 129L430 132L460 132L470 130L481 126L489 121L497 114L502 107L506 99L509 89L511 77L511 42L509 23Z"/>
</svg>
